<svg width="22" height="21" viewBox="0 0 22 21" fill="none" xmlns="http://www.w3.org/2000/svg">
<g id="Group">
<path id="Vector" d="M21.8639 20.9307L21.8746 13.2551C21.8746 9.49699 21.0677 6.60938 16.6726 6.60938C14.56 6.60938 13.148 7.76654 12.5641 8.87063H12.5004V6.94909H8.33887V20.92H12.6703V14.0089C12.6703 12.1829 13.0206 10.4206 15.2713 10.4206C17.4901 10.4206 17.5325 12.5014 17.5325 14.1257V20.9307H21.8639Z" fill="#868695"/>
<path id="Vector_2" d="M5.63207 6.94922H1.29004V20.9202H5.63207V6.94922Z" fill="#868695"/>
<path id="Vector_3" d="M3.45549 -0.00488281C2.06477 -0.00488281 0.939453 1.12044 0.939453 2.51116C0.939453 3.90189 2.06477 5.04844 3.45549 5.04844C4.84622 5.04844 5.97154 3.90189 5.97154 2.51116C5.97154 1.12044 4.84622 -0.00488281 3.45549 -0.00488281Z" fill="#868695"/>
</g>
</svg>
