<svg width="140" height="167" viewBox="0 0 140 167" fill="none" xmlns="http://www.w3.org/2000/svg">
<path d="M29.3593 155.435V166.438H27.167V155.435H23.0776V153.453H33.4908V155.435H29.3593Z" fill="black"/>
<path d="M43.2721 161.504C43.2721 164.455 41.1641 166.521 38.1287 166.521C35.0511 166.521 32.9854 164.497 32.9854 161.504C32.9854 158.511 35.0933 156.487 38.1287 156.487C41.1641 156.487 43.2721 158.511 43.2721 161.504ZM35.1354 161.504C35.1354 163.401 36.358 164.708 38.1709 164.708C39.9415 164.708 41.1641 163.401 41.1641 161.504C41.1641 159.607 39.9415 158.3 38.1709 158.3C36.358 158.342 35.1354 159.607 35.1354 161.504Z" fill="black"/>
<path d="M51.0279 165.805C50.2691 166.269 49.4259 166.522 48.5827 166.522C47.1072 166.522 45.8424 165.679 45.8424 163.655V158.554H44.4512V156.952H45.8424V154.254H47.9503V156.952H50.8593V158.554H47.9925V163.276C47.9925 164.288 48.3719 164.625 49.0465 164.625C49.5102 164.625 49.974 164.456 50.522 164.203L51.0279 165.805Z" fill="black"/>
<path d="M58.9132 165.214C58.1965 166.099 57.0582 166.521 55.667 166.521C53.5169 166.521 52.21 165.214 52.21 163.443C52.21 161.631 53.559 160.492 55.9199 160.492H58.9132V160.197C58.9132 158.975 58.1122 158.216 56.5523 158.216C55.6248 158.216 54.613 158.553 53.6434 159.228L52.758 157.752C54.1493 156.909 55.1189 156.487 57.016 156.487C59.5456 156.487 60.979 157.794 60.979 159.944V166.395H58.871V165.214H58.9132ZM58.9132 162.938V162.01H56.2572C54.866 162.01 54.2336 162.39 54.2336 163.317C54.2336 164.202 54.9503 164.793 56.1307 164.793C57.6063 164.835 58.7867 164.034 58.9132 162.938Z" fill="black"/>
<path d="M63.9292 166.437V152.693H66.0793V166.437H63.9292Z" fill="black"/>
<path d="M80.4546 157.457L79.6957 159.017C78.8104 158.469 77.7143 158.131 76.8711 158.131C76.0279 158.131 75.4377 158.426 75.4377 159.101C75.4377 160.914 80.6654 159.944 80.6654 163.528C80.6654 165.551 78.8526 166.437 76.8711 166.437C75.4377 166.437 73.8779 165.973 72.9082 165.045L73.6671 163.528C74.5102 164.286 75.9015 164.75 76.9554 164.75C77.8829 164.75 78.5575 164.455 78.5575 163.696C78.5575 161.673 73.3719 162.811 73.3719 159.27C73.3719 157.288 75.1004 156.403 76.9976 156.403C78.2623 156.487 79.5693 156.824 80.4546 157.457Z" fill="black"/>
<path d="M88.6773 165.214C87.9606 166.099 86.8224 166.521 85.4311 166.521C83.281 166.521 81.9741 165.214 81.9741 163.443C81.9741 161.631 83.3232 160.492 85.6841 160.492H88.6773V160.197C88.6773 158.975 87.8763 158.216 86.3165 158.216C85.389 158.216 84.3772 158.553 83.4075 159.228L82.5222 157.752C83.9134 156.909 84.9252 156.487 86.7802 156.487C89.3097 156.487 90.7431 157.794 90.7431 159.944V166.395H88.6352V165.214H88.6773ZM88.6773 162.938V162.01H86.0213C84.6301 162.01 83.9977 162.39 83.9977 163.317C83.9977 164.202 84.7144 164.793 85.8949 164.793C87.3704 164.835 88.5509 164.034 88.6773 162.938Z" fill="black"/>
<path d="M93.6934 166.437V152.693H95.8434V166.437H93.6934Z" fill="black"/>
<path d="M107.731 162.305H100.269C100.606 163.822 101.787 164.75 103.347 164.75C104.401 164.75 105.413 164.328 106.129 163.612L107.268 164.834C106.298 165.888 104.907 166.52 103.178 166.52C100.143 166.52 98.1191 164.497 98.1191 161.546C98.1191 158.553 100.185 156.529 103.094 156.529C106.593 156.487 107.984 158.763 107.731 162.305ZM105.876 160.745C105.792 159.143 104.738 158.173 103.136 158.173C101.576 158.173 100.48 159.143 100.227 160.745H105.876Z" fill="black"/>
<path d="M116.333 157.457L115.574 159.017C114.689 158.469 113.593 158.131 112.75 158.131C111.906 158.131 111.316 158.426 111.316 159.101C111.316 160.914 116.544 159.944 116.544 163.528C116.544 165.551 114.731 166.437 112.75 166.437C111.316 166.437 109.756 165.973 108.787 165.045L109.545 163.528C110.389 164.286 111.78 164.75 112.834 164.75C113.761 164.75 114.436 164.455 114.436 163.696C114.436 161.673 109.25 162.811 109.25 159.27C109.25 157.288 110.979 156.403 112.876 156.403C114.141 156.487 115.448 156.824 116.333 157.457Z" fill="black"/>
<g opacity="0.2">
<path opacity="0.2" d="M69.9998 138.949C31.8463 138.949 0.775391 107.878 0.775391 69.7244C0.775391 31.5709 31.8463 0.5 69.9998 0.5C108.153 0.5 139.224 31.5709 139.224 69.7244C139.224 107.878 108.153 138.949 69.9998 138.949ZM69.9998 11.0397C37.622 11.0397 11.315 37.3466 11.315 69.7244C11.315 102.102 37.622 128.409 69.9998 128.409C102.378 128.409 128.685 102.102 128.685 69.7244C128.685 37.3466 102.335 11.0397 69.9998 11.0397Z" fill="#3A86FF"/>
</g>
<path d="M69.9998 138.949C31.8463 138.949 0.775391 107.878 0.775391 69.7244C0.775391 31.5709 31.8463 0.5 69.9998 0.5C75.4805 0.5 80.9611 1.13238 86.2731 2.4393C89.0977 3.11383 90.8262 5.98062 90.1517 8.80525C89.4771 11.6299 86.6103 13.3584 83.7857 12.6838C79.3169 11.5877 74.6373 11.0397 69.9998 11.0397C37.622 11.0397 11.315 37.3466 11.315 69.7244C11.315 102.102 37.622 128.409 69.9998 128.409C102.378 128.409 128.685 102.102 128.685 69.7244C128.685 65.7194 128.263 61.7565 127.504 57.8779C126.914 55.0111 128.769 52.2286 131.594 51.6384C134.418 51.0482 137.243 52.9032 137.833 55.7278C138.761 60.2809 139.224 64.9605 139.224 69.6823C139.224 107.878 108.153 138.949 69.9998 138.949Z" fill="#3A86FF"/>
<path d="M65.7414 57.5412C65.7414 61.4198 62.8746 65.5513 58.9539 69.5986L50.9016 77.9881H67.0061V84.86H40.2354V79.2529L53.3889 65.3406C55.6233 63.064 57.1832 60.4923 57.1832 58.7638C57.1832 56.4872 55.4125 55.1382 52.4193 55.1382C49.426 55.1382 45.716 56.9088 42.512 59.6913L39.3501 53.5783C43.7768 50.2056 48.5828 48.182 53.6419 48.182C60.6824 48.1398 65.7414 51.8076 65.7414 57.5412Z" fill="#3A86FF"/>
<path d="M98.2042 57.7937C98.2042 60.9977 96.3492 63.8645 93.356 65.3822C97.4453 66.9842 100.059 70.4834 100.059 74.6149C100.059 81.1074 94.3678 85.1968 85.4723 85.1968C76.4925 85.1968 70.8433 81.1495 70.8433 74.6993C70.8433 70.4834 73.5836 66.9842 77.9681 65.34C74.764 63.6959 72.7404 60.7869 72.7404 57.5407C72.7404 51.7228 77.7151 48.0972 85.4723 48.0972C93.2295 48.1393 98.2042 51.8914 98.2042 57.7937ZM78.6426 73.8561C78.6426 77.1866 81.0878 78.9994 85.5145 78.9994C89.8146 78.9994 92.3863 77.1866 92.3863 73.8982C92.3863 70.6942 89.899 68.8814 85.4723 68.8814C81.0878 68.8392 78.6426 70.652 78.6426 73.8561ZM79.6123 58.2574C79.6123 61.082 81.7202 62.684 85.4723 62.684C89.1401 62.684 91.248 61.082 91.248 58.2574C91.248 55.3906 89.1823 53.7886 85.4723 53.7886C81.7623 53.7886 79.6123 55.3906 79.6123 58.2574Z" fill="#3A86FF"/>
</svg>
